<?xml version="1.0" encoding="utf-8"?>
<!-- Generator: Adobe Illustrator 23.0.1, SVG Export Plug-In . SVG Version: 6.00 Build 0)  -->
<svg version="1.1" id="Слой_1" xmlns="http://www.w3.org/2000/svg" xmlns:xlink="http://www.w3.org/1999/xlink" x="0px" y="0px"
	 viewBox="0 0 167 15" style="enable-background:new 0 0 167 15;" xml:space="preserve">
<style type="text/css">
	.st0{fill:#FFFFFF;}
</style>
<title>logo</title>
<path class="st0" d="M108,14.2c-3.1-0.9-4.8-3.6-4.7-7.2c0-3.1,2.2-5.8,5.2-6.4c1.2-0.2,2.4-0.2,3.5,0c3.1,0.8,5.2,3.8,5,7.1
	c-0.2,3.6-2.3,6.2-5.6,6.7C110.3,14.6,109.1,14.5,108,14.2z M114.8,7.5c0.1-2.6-1.9-4.7-4.5-4.8c-2.6-0.1-4.7,1.9-4.8,4.5
	c0,0.1,0,0.3,0,0.4c-0.1,2.6,1.9,4.7,4.5,4.8c2.6,0.1,4.7-1.9,4.8-4.5C114.8,7.8,114.8,7.6,114.8,7.5z"/>
<path class="st0" d="M2.1,5.3v8.9H0V0.6C0.4,0.9,6.3,6.5,9,9l0.6,0.6V0.8h2.1v13.6C11.3,14.1,5.5,8.6,2.9,6C2.7,5.8,2.5,5.6,2.1,5.3
	z"/>
<path class="st0" d="M38.4,10.1v4.1h-2.1V0.8c2.4-0.1,4.8,0,7.2,0.1c2.6,0.3,3.9,2.3,3.7,4.9c-0.2,2.4-2,4-4.8,4.2
	C41.2,10.1,39.8,10.1,38.4,10.1z M38.5,2.8v5.3c1.4,0,2.7,0.1,4.1,0c1.3,0,2.4-1,2.4-2.4c0-0.1,0-0.2,0-0.2c0.1-1.3-0.8-2.5-2.1-2.6
	c-0.1,0-0.2,0-0.3,0C41.3,2.7,39.9,2.8,38.5,2.8z"/>
<path class="st0" d="M125.6,5.3v8.9h-2.1V0.6c0.4,0.3,6.6,6.1,9.5,9V0.8h2.2v13.6c-0.4-0.3-6.1-5.8-8.7-8.3L125.6,5.3z"/>
<path class="st0" d="M160.5,14.2V2.8h-4.4V0.9H167v1.9h-4.3v11.5L160.5,14.2L160.5,14.2z"/>
<path class="st0" d="M148,14.2V0.8h2.1v13.3H148V14.2z"/>
<path class="st0" d="M97.9,0.8v1.9h-7.7v3.9h6.5v1.9h-6.5v3.7h7.7v2H88V0.8H97.9z"/>
<path class="st0" d="M72.7,0.8h2.1v11.4H82v1.9h-9.3V0.8z"/>
<path class="st0" d="M57.2,14.2c-3-0.9-4.8-3.6-4.7-7.2c0-3.1,2.2-5.8,5.2-6.4c1.2-0.2,2.4-0.2,3.5,0c3.1,0.8,5.2,3.8,5,7.1
	c-0.2,3.6-2.3,6.2-5.5,6.7C59.5,14.6,58.3,14.5,57.2,14.2z M64,7.5c0.1-2.6-1.9-4.7-4.5-4.8c-2.6-0.1-4.7,1.9-4.8,4.5
	c0,0.1,0,0.3,0,0.4c-0.1,2.6,1.9,4.7,4.5,4.8c2.6,0.1,4.7-1.9,4.8-4.5C64,7.8,64,7.6,64,7.5z"/>
<path class="st0" d="M30.9,14.4l-0.1-0.2C30.5,13.5,24,0.7,24,0.7S20.5,7.5,18.3,12l0,0l-1.2,2.4h2.6l1-2.2c1.8,0,4.9,0,6.7,0l1,2.2
	H30.9z M21.5,10.3l0.1-0.2L24,4.7l2.5,5.6H21.5z"/>
</svg>
