<?xml version="1.0" encoding="UTF-8"?>
<svg width="342px" height="16px" viewBox="0 0 342 16" version="1.1" xmlns="http://www.w3.org/2000/svg" xmlns:xlink="http://www.w3.org/1999/xlink">
    <!-- Generator: Sketch 61.1 (89650) - https://sketch.com -->
    <title>school-logo</title>
    <desc>Created with Sketch.</desc>
    <defs>
        <polygon id="path-1" points="0 16 342 16 342 0 0 0"></polygon>
    </defs>
    <g id="Page-1" stroke="none" stroke-width="1" fill="none" fill-rule="evenodd" opacity="0.400000006">
        <g id="Artboard" transform="translate(-1129.000000, -8736.000000)">
            <g id="Group-6" transform="translate(322.000000, 8729.000000)">
                <g id="school-logo" transform="translate(807.000000, 7.000000)">
                    <path d="M141.241002,7.97430393 C141.241002,4.70721456 138.841665,2.40448679 135.46317,2.40448679 C132.085566,2.40448679 129.732559,4.75082048 129.732559,8.04055138 C129.732559,11.2413933 132.225446,13.6095299 135.579885,13.565924 C138.86483,13.565924 141.241002,11.1977874 141.241002,7.97430393 M132.807238,15.670748 C129.057216,14.5965331 126.867253,11.5483119 127.006242,7.49212313 C127.053462,3.93907959 129.709394,0.869893996 133.413087,0.168006471 C134.857322,-0.0735032155 136.325613,-0.0508616825 137.769848,0.211612386 C141.613421,1.08960072 144.176693,4.42209896 143.990484,8.25941953 C143.78111,12.3382498 141.125178,15.2766176 137.11767,15.8896162 C135.672544,16.0875199 134.228309,16.0221111 132.807238,15.670748" id="Fill-1" fill="#FFFFFF"></path>
                    <path d="M2.58423529,5.45145263 L2.58423529,15.6030316 L-0.000176470588,15.6030316 L-0.000176470588,0.0788210526 C0.530117647,0.408926316 7.75217647,6.79461053 10.9824706,9.76724211 C11.1439412,9.92218947 11.3283529,10.0754526 11.6980588,10.3836632 L11.6980588,0.321347368 L14.3283529,0.321347368 L14.3283529,15.8674526 C13.8430588,15.5811368 6.76041176,9.26113684 3.576,6.28850526 C3.276,6.02408421 2.99982353,5.80345263 2.58423529,5.45145263" id="Fill-3" fill="#FFFFFF"></path>
                    <path d="M46.7548579,2.43226383 L46.7548579,8.73332875 C48.5430666,8.73332875 50.2822959,8.80192374 51.9984217,8.73332875 C54.0287548,8.61812436 55.1155421,7.46871865 55.1395697,5.60522157 C55.1645214,3.74260392 54.07681,2.57033322 52.046477,2.45512882 C50.3312753,2.33992442 48.5911218,2.43226383 46.7548579,2.43226383 M46.6818509,11.1016146 L46.6818509,16 L44,16 L44,0.0402335967 C47.1171203,0.0402335967 50.2102131,-0.12070079 53.2552506,0.201167984 C56.6135712,0.56964617 58.25669,2.91506699 57.9674346,6.11176915 C57.7253102,8.96285812 55.3336388,10.9635452 51.8533319,11.0787496 C50.1861855,11.171089 48.4940872,11.1016146 46.6818509,11.1016146" id="Fill-6" fill="#FFFFFF"></path>
                    <path d="M154.705524,5.40737195 L154.705524,15.7327802 L152,15.7327802 L152,0 C152.580085,0.355725759 160.454646,7.12047232 164.222427,10.4368917 L164.222427,0.26636881 L167,0.26636881 L167,16 C166.467948,15.6885272 159.101423,9.32375937 155.816737,6.36476783 C155.526695,6.11967449 155.212636,5.85245466 154.705524,5.40737195" id="Fill-8" fill="#FFFFFF"></path>
                    <polygon id="Fill-10" fill="#FFFFFF" points="197.595369 16 197.595369 2.32520773 192 2.32520773 192 0 206 0 206 2.25565399 200.429639 2.25565399 200.429639 16"></polygon>
                    <mask id="mask-2" fill="white">
                        <use xlink:href="#path-1"></use>
                    </mask>
                    <g id="Clip-13"></g>
                    <polygon id="Fill-12" fill="#FFFFFF" mask="url(#mask-2)" points="182 16 184 16 184 0 182 0"></polygon>
                    <polygon id="Fill-14" fill="#FFFFFF" mask="url(#mask-2)" points="121 0 121 2.25653442 110.83365 2.25653442 110.83365 6.88317834 119.38403 6.88317834 119.38403 9.13971276 110.83365 9.13971276 110.83365 13.6290101 120.95057 13.6290101 120.95057 16 108 16 108 0"></polygon>
                    <polygon id="Fill-15" fill="#FFFFFF" mask="url(#mask-2)" points="89 0 91.4442556 0 91.4442556 13.6976834 100 13.6976834 100 16 89 16"></polygon>
                    <path d="M78.2086654,7.95575787 C78.2086654,4.6903255 75.8108864,2.38876562 72.4345855,2.38876562 C69.0591751,2.41139567 66.7076955,4.7121174 66.7076955,8.02197172 C66.7076955,11.2211902 69.1989639,13.5663339 72.5512246,13.544542 C75.8340361,13.544542 78.2086654,11.1776064 78.2086654,7.95575787 M69.8044187,15.6709285 C66.0327915,14.5964203 63.8674002,11.5279531 64.0062987,7.49561352 C64.0303388,3.94521016 66.7076955,0.876743034 70.4089831,0.175211491 C71.8531709,-0.0653375573 73.319618,-0.0653375573 74.7629154,0.21963344 C78.6511817,1.11813023 81.2590892,4.51515215 80.9795115,8.28515082 C80.7693831,12.3610742 78.1160665,15.3197437 74.1111611,15.9114776 C72.6910135,16.0866509 71.2005262,15.9994833 69.8044187,15.6709285" id="Fill-16" fill="#FFFFFF" mask="url(#mask-2)"></path>
                    <path d="M26.3895104,11.2364518 L26.5053853,10.9889501 C27.4536136,8.94448294 28.4018419,6.94384425 29.4659452,4.69742262 L32.5184973,11.2364518 L26.3895104,11.2364518 Z M38,16 L37.8850096,15.7533577 C37.4683907,14.8991331 29.5809355,0.0232499877 29.4429471,-6.77626358e-21 C29.3031896,-0.0222971992 25.1175399,7.97767945 22.4577241,13.1468555 L21,15.9776561 L24.2153078,15.9776561 L25.3944014,13.439045 C27.568604,13.3934978 31.431396,13.439045 33.6515948,13.3934978 L34.854571,15.9553122 L38,16 Z" id="Fill-17" fill="#FFFFFF" mask="url(#mask-2)"></path>
                    <path d="M219.64446,12.3731539 C220.815199,13.0130867 222.864915,13.8127923 225.090057,13.8127923 C227.608807,13.8127923 229.306747,12.9601093 229.306747,11.4128344 C229.306747,10.2927419 228.42777,9.70662742 226.319886,9.22646765 L223.274858,8.53355758 C220.405256,7.89278394 219,6.50612288 219,4.47952909 C219,2.02659379 221.107884,0 225.617259,0 C228.017827,0 230.30206,0.639932727 231.590057,1.22688811 L230.829261,3.41325485 C229.599432,2.77332212 227.432457,2.18636674 225.5,2.18636674 C222.806747,2.18636674 221.694176,3.09286803 221.694176,4.26677879 C221.694176,5.33305303 222.513139,5.86619015 224.035653,6.24039523 L227.37429,7.04010091 C230.419318,7.78682924 232,9.01287644 232,11.2000841 C232,14.0802018 229.07223,16 225.031889,16 C222.57223,16 220.112571,15.2002943 219,14.6671572 L219.64446,12.3731539 Z" id="Fill-18" fill="#FFFFFF" mask="url(#mask-2)"></path>
                    <path d="M246.57181,13.759815 C248.827455,13.759815 250.575425,12.9601093 251.815719,11.8929942 L253,13.600042 C251.364946,15.1464761 249.1093,16 246.57181,16 C241.665758,16 238,12.5337678 238,7.99957954 C238,3.41325485 241.665758,0 246.57181,0 C249.165313,0 251.364946,0.799705681 253,2.39995795 L251.815719,4.10700583 C250.631439,3.03989068 248.883469,2.240185 246.57181,2.240185 C243.074981,2.240185 240.594393,4.74693856 240.594393,8.0533978 C240.53749,11.2530614 243.074981,13.759815 246.57181,13.759815" id="Fill-19" fill="#FFFFFF" mask="url(#mask-2)"></path>
                    <polygon id="Fill-20" fill="#FFFFFF" mask="url(#mask-2)" points="273.509309 8.98623036 263.491564 8.98623036 263.491564 16 261 16 261 0 263.491564 0 263.491564 6.90404449 273.509309 6.90404449 273.509309 0 276 0 276 16 273.509309 16"></polygon>
                    <path d="M291.47195,13.7145252 C294.973286,13.7145252 297.514693,11.2689749 297.514693,7.97360013 C297.514693,4.67822534 295.029386,2.23267508 291.47195,2.23267508 C288.026714,2.23267508 285.484417,4.67822534 285.484417,7.97360013 C285.484417,11.2689749 288.026714,13.7145252 291.47195,13.7145252 M291.47195,0 C296.328584,0 300,3.40181237 300,8.02639987 C300,12.5981876 296.385574,16 291.47195,16 C286.614426,16 283,12.5981876 283,8.02639987 C283,3.40181237 286.614426,0 291.47195,0" id="Fill-21" fill="#FFFFFF" mask="url(#mask-2)"></path>
                    <path d="M313.471503,13.7145252 C316.973913,13.7145252 319.515453,11.2689749 319.515453,7.97360013 C319.515453,4.67822534 317.030016,2.23267508 313.471503,2.23267508 C310.026977,2.23267508 307.484547,4.67822534 307.484547,7.97360013 C307.484547,11.2689749 310.026977,13.7145252 313.471503,13.7145252 M313.471503,0 C318.329282,0 322,3.40181237 322,8.02639987 C322,12.5981876 318.386276,16 313.471503,16 C308.614615,16 305,12.5981876 305,8.02639987 C305,3.40181237 308.670718,0 313.471503,0" id="Fill-22" fill="#FFFFFF" mask="url(#mask-2)"></path>
                    <polygon id="Fill-23" fill="#FFFFFF" mask="url(#mask-2)" points="331 16 331 0 333.414552 0 333.414552 13.8634989 342 13.8634989 342 16"></polygon>
                </g>
            </g>
        </g>
    </g>
</svg>